HIERARCHY
ROOT Hips
{
	OFFSET 0.00000 0.00000 0.00000
	CHANNELS 6 Xposition Yposition Zposition Zrotation Yrotation Xrotation 
	JOINT LHipJoint
	{
		OFFSET 0 0 0
		CHANNELS 3 Zrotation Yrotation Xrotation
		JOINT LeftUpLeg
		{
			OFFSET 1.29432 -1.88279 0.59910
			CHANNELS 3 Zrotation Yrotation Xrotation
			JOINT LeftLeg
			{
				OFFSET 2.63039 -7.22694 0.00000
				CHANNELS 3 Zrotation Yrotation Xrotation
				JOINT LeftFoot
				{
					OFFSET 2.70674 -7.43672 0.00000
					CHANNELS 3 Zrotation Yrotation Xrotation
					JOINT LeftToeBase
					{
						OFFSET 0.15066 -0.41394 2.09027
						CHANNELS 3 Zrotation Yrotation Xrotation
						End Site
						{
							OFFSET 0.00000 -0.00000 1.07518
						}
					}
				}
			}
		}
	}
	JOINT RHipJoint
	{
		OFFSET 0 0 0
		CHANNELS 3 Zrotation Yrotation Xrotation
		JOINT RightUpLeg
		{
			OFFSET -1.37068 -1.88279 0.59910
			CHANNELS 3 Zrotation Yrotation Xrotation
			JOINT RightLeg
			{
				OFFSET -2.57023 -7.06166 0.00000
				CHANNELS 3 Zrotation Yrotation Xrotation
				JOINT RightFoot
				{
					OFFSET -2.76461 -7.59570 0.00000
					CHANNELS 3 Zrotation Yrotation Xrotation
					JOINT RightToeBase
					{
						OFFSET -0.24175 -0.64785 2.19719
						CHANNELS 3 Zrotation Yrotation Xrotation
						End Site
						{
							OFFSET -0.00000 -0.00000 1.14803
						}
					}
				}
			}
		}
	}
	JOINT LowerBack
	{
		OFFSET 0 0 0
		CHANNELS 3 Zrotation Yrotation Xrotation
		JOINT Spine
		{
			OFFSET -0.03138 2.03983 -0.23106
			CHANNELS 3 Zrotation Yrotation Xrotation
			JOINT Spine1
			{
				OFFSET -0.00325 2.06238 -0.06878
				CHANNELS 3 Zrotation Yrotation Xrotation
				JOINT Neck
				{
					OFFSET 0 0 0
					CHANNELS 3 Zrotation Yrotation Xrotation
					JOINT Neck1
					{
						OFFSET -0.00002 1.75318 0.18090
						CHANNELS 3 Zrotation Yrotation Xrotation
						JOINT Head
						{
							OFFSET 0.08806 1.75856 -0.25387
							CHANNELS 3 Zrotation Yrotation Xrotation
							End Site
							{
								OFFSET 0.02554 1.78597 -0.10684
							}
						}
					}
				}
				JOINT LeftShoulder
				{
					OFFSET 0 0 0
					CHANNELS 3 Zrotation Yrotation Xrotation
					JOINT LeftArm
					{
						OFFSET 3.09657 1.33597 -0.04414
						CHANNELS 3 Zrotation Yrotation Xrotation
						JOINT LeftForeArm
						{
							OFFSET 5.34298 -0.00000 -0.00000
							CHANNELS 3 Zrotation Yrotation Xrotation
							JOINT LeftHand
							{
								OFFSET 3.67262 -0.00000 -0.00000
								CHANNELS 3 Zrotation Yrotation Xrotation
								JOINT LeftFingerBase
								{
									OFFSET 0 0 0
									CHANNELS 3 Zrotation Yrotation Xrotation
									JOINT LeftHandIndex1
									{
										OFFSET 0.59930 -0.00000 -0.00000
										CHANNELS 3 Zrotation Yrotation Xrotation
										End Site
										{
											OFFSET 0.48317 -0.00000 -0.00000
										}
									}
								}
								JOINT LThumb
								{
									OFFSET 0 0 0
									CHANNELS 3 Zrotation Yrotation Xrotation
									End Site
									{
										OFFSET 0.49055 -0.00000 0.49055
									}
								}
							}
						}
					}
				}
				JOINT RightShoulder
				{
					OFFSET 0 0 0
					CHANNELS 3 Zrotation Yrotation Xrotation
					JOINT RightArm
					{
						OFFSET -3.16460 1.32273 -0.23382
						CHANNELS 3 Zrotation Yrotation Xrotation
						JOINT RightForeArm
						{
							OFFSET -5.54967 -0.01834 0.03348
							CHANNELS 3 Zrotation Yrotation Xrotation
							JOINT RightHand
							{
								OFFSET -3.69401 -0.00000 0.00000
								CHANNELS 3 Zrotation Yrotation Xrotation
								JOINT RightFingerBase
								{
									OFFSET 0 0 0
									CHANNELS 3 Zrotation Yrotation Xrotation
									JOINT RightHandIndex1
									{
										OFFSET -0.63811 -0.00000 0.00000
										CHANNELS 3 Zrotation Yrotation Xrotation
										End Site
										{
											OFFSET -0.51446 -0.00000 0.00000
										}
									}
								}
								JOINT RThumb
								{
									OFFSET 0 0 0
									CHANNELS 3 Zrotation Yrotation Xrotation
									End Site
									{
										OFFSET -0.52232 -0.00000 0.52232
									}
								}
							}
						}
					}
				}
			}
		}
	}
}
MOTION
Frames: 10
Frame Time: .0083333
6.9880 16.6053 1.3700 176.6430 -0.6541 209.4800 0.0000 0.0000 0.0000 -2.8342 0.6992 -31.8954 3.2833 11.1401 32.7540 1.7718 0.6323 -25.4171 2.2131 -9.2965 -26.7272 0.0000 0.0000 0.0000 -4.9680 5.6554 -30.4750 -4.4660 -12.7560 38.4616 -1.5429 -13.5682 -31.7679 -1.8358 8.5154 -24.2907 -2.4696 1.1183 21.5171 -1.1890 -0.9263 9.5702 0.3624 -1.2365 -1.6230 -3.7758 -2.8514 -9.6294 7.6854 -4.1053 -10.5580 3.0825 -2.4944 -1.4767 -0.0000 0.0000 0.0000 -69.3515 -18.3917 58.9608 69.2189 -58.3036 -42.1055 -0.0000 -0.0000 20.7455 83.9271 58.7582 82.9068 -7.1250 0.0000 -0.0000 173.0935 -63.6532 -176.8685 -0.0000 0.0000 0.0000 71.5415 20.5992 61.4067 -69.5932 58.3665 -42.4241 0.0000 -0.0000 -11.0996 -81.6010 27.1455 -72.0677 7.1250 -0.0000 -0.0000 -29.8925 37.9786 -44.7698
7.0006 16.6289 1.3688 176.6900 -0.3837 209.5910 0.0000 0.0000 0.0000 -2.8966 0.6516 -31.8754 3.2444 11.0806 32.5521 1.7283 1.4770 -25.4207 2.4551 -9.7558 -28.1894 0.0000 0.0000 0.0000 -5.0254 6.2005 -30.3700 -4.3889 -12.6607 38.1113 -1.5063 -13.8541 -31.7839 -1.7608 8.3490 -23.7793 -2.6935 1.2087 21.2187 -1.3239 -0.8166 9.4856 0.3183 -1.1744 -1.5681 -3.6152 -2.8792 -9.5101 7.6261 -4.1426 -10.4148 3.0301 -2.5062 -1.4512 0.0000 0.0000 0.0000 -68.9309 -18.5020 58.9115 69.0140 -58.2687 -41.9313 -0.0000 -0.0000 20.4170 83.3444 58.5224 82.2091 -7.1250 0.0000 -0.0000 172.6939 -64.0337 -176.6215 0.0000 0.0000 0.0000 71.6329 20.8101 61.7275 -68.7465 58.2224 -41.7038 0.0000 -0.0000 -11.6722 -82.8758 27.3008 -74.7569 7.1250 -0.0000 -0.0000 -30.9935 39.9872 -46.5355
7.0121 16.6355 1.3739 177.1440 -0.3099 209.8460 0.0000 0.0000 0.0000 -2.4552 0.7086 -31.9087 3.1822 10.9843 32.2269 1.6982 1.9133 -25.3780 2.3788 -9.6142 -27.7362 0.0000 0.0000 0.0000 -4.6488 6.8411 -30.4758 -4.3473 -12.6088 37.9210 -1.5858 -13.6836 -32.1266 -1.5700 7.9063 -22.4299 -2.5094 1.1852 20.7708 -1.3051 -0.7401 9.3593 0.2133 -1.1104 -1.4823 -3.7390 -2.8713 -9.3507 7.7320 -4.1075 -10.3585 3.0922 -2.4804 -1.4570 -0.0000 -0.0000 0.0000 -68.6013 -18.5700 58.7942 68.6108 -58.1987 -41.5885 -0.0000 -0.0000 20.1563 83.3112 58.5606 82.1735 -7.1250 0.0000 -0.0000 172.7535 -64.0472 -176.6469 -0.0000 -0.0000 0.0000 71.7892 21.0191 62.1411 -68.0043 58.0906 -41.0733 0.0000 -0.0000 -12.1704 -80.8633 26.2498 -70.0169 7.1250 -0.0000 -0.0000 -29.5933 36.1058 -44.2966
7.0151 16.6681 1.3639 177.3930 -0.2275 210.0180 0.0000 0.0000 0.0000 -2.1852 0.5209 -31.7642 3.1248 10.8944 31.9245 1.7251 1.4602 -25.3910 1.8549 -8.5570 -24.4191 0.0000 0.0000 0.0000 -4.3989 7.1975 -30.4126 -4.2698 -12.5110 37.5646 -1.5791 -13.7913 -32.1764 -1.5013 7.7393 -21.9250 -2.3368 1.1812 20.3708 -1.3654 -0.6582 9.2652 0.0305 -1.0473 -1.3853 -3.7356 -2.9002 -9.2446 7.7487 -4.1329 -10.2464 3.0959 -2.4841 -1.4359 -0.0000 -0.0000 0.0000 -68.5921 -18.7102 58.9328 67.8543 -58.0633 -40.9459 -0.0000 -0.0000 19.9362 83.2958 59.1236 82.2014 -7.1250 0.0000 -0.0000 173.6452 -63.9777 -177.0716 -0.0000 -0.0000 0.0000 71.9987 21.1791 62.4437 -66.9850 57.9008 -40.2089 0.0000 -0.0000 -12.5787 -79.5251 25.1272 -66.4714 7.1250 -0.0000 -0.0000 -28.8645 33.0284 -42.9925
7.0150 16.6808 1.3546 177.4900 -0.1419 209.9300 0.0000 0.0000 0.0000 -2.1659 0.4722 -31.2353 3.0304 10.7442 31.4219 1.7064 1.5192 -25.2789 1.7781 -8.3877 -23.8980 0.0000 0.0000 0.0000 -4.2932 7.5237 -30.1185 -4.2153 -12.4415 37.3122 -1.5139 -14.1963 -32.1238 -1.5111 7.7632 -21.9973 -2.2357 1.1888 20.2222 -1.4530 -0.6138 9.2256 -0.1299 -1.0153 -1.3549 -3.7049 -2.9161 -9.1336 7.7163 -4.1400 -10.0607 3.0764 -2.4737 -1.3941 -0.0000 -0.0000 0.0000 -68.6422 -18.8674 59.1296 66.9469 -57.8935 -40.1766 -0.0000 -0.0000 19.5236 82.7843 59.6037 81.6495 -7.1250 0.0000 -0.0000 174.3987 -64.2065 -177.3901 -0.0000 -0.0000 0.0000 71.9208 21.4142 62.7248 -66.0570 57.7190 -39.4235 0.0000 -0.0000 -13.0366 -82.5102 24.9699 -72.7014 7.1250 -0.0000 -0.0000 -31.5612 37.5197 -47.6611
7.0187 16.7142 1.3420 177.6540 -0.1116 209.8310 0.0000 0.0000 0.0000 -1.9060 0.1772 -30.6065 2.9542 10.6205 31.0104 1.7983 0.5074 -25.5617 1.2611 -7.1186 -20.0672 0.0000 0.0000 0.0000 -4.0675 7.9300 -29.6802 -4.1348 -12.3376 36.9370 -1.4947 -14.4377 -32.2156 -1.4299 7.5610 -21.3884 -2.0803 1.2281 20.0794 -1.5175 -0.5202 9.2065 -0.3068 -0.9593 -1.3053 -3.6667 -2.9501 -9.0441 7.8204 -4.1669 -9.8633 3.1010 -2.4754 -1.3410 0.0000 0.0000 0.0000 -68.6659 -18.9739 59.2456 66.1147 -57.7306 -39.4723 -0.0000 -0.0000 19.3038 82.4559 59.6093 81.2714 -7.1250 0.0000 -0.0000 174.4078 -64.3955 -177.3697 0.0000 0.0000 0.0000 71.8777 21.6248 62.7881 -65.3504 57.5748 -38.8266 0.0000 -0.0000 -13.1504 -83.0373 24.9320 -73.8434 7.1250 -0.0000 -0.0000 -32.0966 38.3362 -48.5489
7.0249 16.7190 1.3418 177.3730 0.0832 209.7460 0.0000 0.0000 0.0000 -2.3070 -0.0862 -30.1454 2.8609 10.4663 30.5005 1.7231 1.5772 -25.4228 1.6048 -7.9892 -22.6811 0.0000 0.0000 0.0000 -4.4282 8.1821 -29.4045 -4.0875 -12.2760 36.7153 -1.4583 -14.7236 -32.2448 -1.3929 7.4668 -21.1058 -2.4000 1.3145 19.9182 -1.6515 -0.4766 9.2683 -0.2794 -0.9513 -1.1582 -3.7432 -2.9880 -9.0264 7.9105 -4.2079 -9.8930 3.1461 -2.4959 -1.3477 -0.0000 0.0000 0.0000 -68.7410 -19.2531 59.3283 65.3566 -57.5761 -38.8319 -0.0000 -0.0000 19.0334 83.3819 59.2464 82.3110 -7.1250 0.0000 -0.0000 173.8406 -63.9111 -177.1715 -0.0000 0.0000 0.0000 71.8774 21.9266 62.8441 -64.5977 57.4156 -38.1918 0.0000 -0.0000 -13.1367 -80.4750 25.2736 -68.5447 7.1250 -0.0000 -0.0000 -29.6045 34.6106 -44.3116
7.0330 16.7401 1.3377 177.1610 0.2376 209.6900 0.0000 0.0000 0.0000 -2.4740 -0.5404 -29.7250 2.8040 10.3707 30.1858 1.7011 1.5366 -25.2472 1.3306 -7.3046 -20.6210 0.0000 0.0000 0.0000 -4.6377 8.2241 -29.1635 -4.0111 -12.1752 36.3546 -1.4083 -14.8952 -32.0927 -1.3501 7.3559 -20.7741 -2.7617 1.3715 19.8849 -1.7048 -0.4575 9.2021 -0.1345 -0.9464 -1.2124 -3.8820 -3.0485 -8.8767 7.9024 -4.2779 -10.0145 3.1737 -2.5315 -1.4061 -0.0000 0.0000 0.0000 -68.7813 -19.4985 59.4155 64.2043 -57.3300 -37.8605 -0.0000 -0.0000 18.8881 83.7466 58.5388 82.6798 -7.1250 0.0000 -0.0000 172.7405 -63.7882 -176.6847 -0.0000 0.0000 0.0000 71.8145 22.0527 63.1023 -63.8493 57.2514 -37.5618 0.0000 -0.0000 -13.3170 -79.8124 25.2753 -67.1744 7.1250 -0.0000 -0.0000 -29.0500 33.6082 -43.3327
7.0379 16.7399 1.3413 177.3480 0.2746 209.6110 0.0000 0.0000 0.0000 -2.2911 -0.6973 -29.3440 2.7369 10.2565 29.8114 1.6184 2.4157 -25.0074 1.4831 -7.6943 -21.7895 0.0000 0.0000 0.0000 -4.4214 8.1997 -29.0692 -3.9681 -12.1179 36.1502 -1.4025 -14.7490 -31.9261 -1.2707 7.1448 -20.1450 -2.7942 1.3882 20.0471 -1.6302 -0.3985 8.9488 -0.0441 -0.8943 -1.5671 -4.1655 -3.1275 -8.6411 8.0750 -4.3336 -9.8293 3.2849 -2.5369 -1.3720 0.0000 -0.0000 0.0000 -68.8366 -19.4068 59.4191 62.9072 -57.0361 -36.7704 -0.0000 -0.0000 19.3078 82.7708 57.8340 81.4778 -7.1250 0.0000 -0.0000 171.5563 -64.4802 -176.0042 0.0000 -0.0000 0.0000 71.7582 21.9036 63.5086 -63.1245 57.0866 -36.9528 0.0000 -0.0000 -13.3944 -81.0250 24.5989 -69.2224 7.1250 -0.0000 -0.0000 -30.3076 34.8181 -45.5341
7.0388 16.7662 1.3336 177.4480 0.3450 209.4070 0.0000 0.0000 0.0000 -2.1521 -0.9324 -28.9281 2.7196 10.2267 29.7139 1.6784 2.1002 -25.3121 1.2370 -7.0529 -19.8723 0.0000 0.0000 0.0000 -4.2700 8.3247 -28.6248 -3.8862 -12.0074 35.7581 -1.3538 -14.8930 -31.7546 -1.2441 7.0723 -19.9296 -2.7778 1.4297 20.2312 -1.6155 -0.3295 8.8106 -0.0490 -0.8483 -1.8100 -4.3929 -3.1894 -8.5612 8.2273 -4.3717 -9.5140 3.3728 -2.5290 -1.2711 0.0000 0.0000 0.0000 -69.0083 -19.2625 59.4656 61.9035 -56.7962 -35.9294 -0.0000 -0.0000 19.7813 82.3550 57.3839 80.9455 -7.1250 0.0000 -0.0000 170.7894 -64.8064 -175.5686 0.0000 0.0000 0.0000 71.7292 21.9321 63.8359 -62.1157 56.8479 -36.1071 0.0000 -0.0000 -13.5396 -81.8318 24.4164 -70.8510 7.1250 -0.0000 -0.0000 -31.1047 35.9354 -46.9181
